<svg width="273" height="400" viewBox="0 0 273 400" fill="none" xmlns="http://www.w3.org/2000/svg">
<path opacity="0.12" fill-rule="evenodd" clip-rule="evenodd" d="M42.0879 -98.9425C87.6255 -96.2624 128.3 -78.8938 164.998 -51.7996C210.504 -18.2024 275.279 14.6176 272.419 71.1102C269.564 127.511 193.259 142.417 153.153 182.175C113.405 221.579 98.0234 297.5 42.0879 299.446C-13.8784 301.393 -42.3994 234.227 -76.9829 190.181C-105.537 153.815 -133.754 117.218 -137.196 71.1102C-140.917 21.269 -132.457 -32.7769 -96.1944 -67.1721C-60.5224 -101.007 -6.99345 -101.831 42.0879 -98.9425Z" fill="#7F49F0"/>
<path opacity="0.08" fill-rule="evenodd" clip-rule="evenodd" d="M16.0879 13.0575C61.6255 15.7376 102.3 33.1062 138.998 60.2004C184.504 93.7976 249.279 126.618 246.419 183.11C243.564 239.511 167.259 254.417 127.153 294.175C87.4049 333.579 72.0234 409.5 16.0879 411.446C-39.8784 413.393 -68.3994 346.227 -102.983 302.181C-131.537 265.815 -159.754 229.218 -163.196 183.11C-166.917 133.269 -158.457 79.2231 -122.194 44.8279C-86.5224 10.9926 -32.9934 10.1688 16.0879 13.0575Z" fill="#7F49F0"/>
</svg>
