<svg width="68" height="33" viewBox="0 0 68 33" fill="none" xmlns="http://www.w3.org/2000/svg">
<path d="M15.912 26H12.84V18.392H5.304V26H2.232V8.864H5.304V15.776H12.84V8.864H15.912V26ZM26.5166 26H23.4446V11.456H18.5246V8.864H31.4366V11.456H26.5166V26ZM41.4281 26L36.7241 11.96H36.6281C36.6441 12.28 36.6681 12.736 36.7001 13.328C36.7321 13.904 36.7561 14.536 36.7721 15.224C36.8041 15.896 36.8201 16.528 36.8201 17.12V26H34.0601V8.864H38.3321L42.8441 22.328H42.9401L47.6441 8.864H51.9161V26H48.9881V16.976C48.9881 16.432 48.9961 15.84 49.0121 15.2C49.0441 14.544 49.0681 13.928 49.0841 13.352C49.1161 12.76 49.1401 12.304 49.1561 11.984H49.0601L44.1641 26H41.4281ZM56.3492 26V8.864H59.4212V23.408H66.5732V26H56.3492Z" fill="white"/>
</svg>
